# xmcd CD database file
#
# Track frame offsets:
#	150
#	38620
#	65787
#	118500
#	137615
#	165505
#	178040
#	189009
#	200179
#	211101
#	224828
#	237017
#	256381
#	272196
#	289370
#	304245
#	318336
#
# Disc length: 4412 seconds
#
# Revision: 0
# Processed by: cddbd v1.5.2PL0 Copyright (c) Steve Scherf et al.
# Submitted via: CDex 1.83
#
DISCID=07113a11
DTITLE=Roy Eldridge - Laughin' To Keep From Cryin' 1958 Swingin' On The Town
DYEAR=1960
DGENRE=Jazz
TTITLE0=Salute To Benny
TTITLE1=They Can't Take That Away From Me
TTITLE2=Romping
TTITLE3=Gypsy In My Soul
TTITLE4=Please Dont Talk About Me When I'm Gone
TTITLE5=Bossa Nova
TTITLE6=The Way You Look Tonight
TTITLE7=Sweet Sue,Just You
TTITLE8=I've Got A Crush On You
TTITLE9=When I Grow Too Old To Dream
TTITLE10=Creme De Menthe
TTITLE11=Honeysuckle Rose
TTITLE12=All The Things You Are
TTITLE13=Easy Living
TTITLE14=But Not For Me
TTITLE15=Songs Of The Islands
TTITLE16=Misty
EXTD=YEAR: 1960
EXTT0=
EXTT1=
EXTT2=
EXTT3=
EXTT4=
EXTT5=
EXTT6=
EXTT7=
EXTT8=
EXTT9=
EXTT10=
EXTT11=
EXTT12=
EXTT13=
EXTT14=
EXTT15=
EXTT16=
PLAYORDER=
